<svg width="1080" height="350" viewBox="0 0 1080 350" fill="none" xmlns="http://www.w3.org/2000/svg">
<rect width="1080" height="350" fill="white"/>
<path d="M535.684 168.26H543.588L548.58 156.82H551.076L546.084 168.26H552.012L551.388 170.6H544.992L540.052 181.78H548.996L548.528 184.12H539.064L534.384 194.78H531.888L536.568 184.12H528.664L523.984 194.78H521.488L526.168 184.12H520.396L520.864 181.78H527.156L532.096 170.6H523.152L523.776 168.26H533.188L538.18 156.82H540.676L535.684 168.26ZM537.556 181.78L542.496 170.6H534.592L529.652 181.78H537.556ZM571.293 184.276C571.674 182.577 571.986 181.052 572.229 179.7C572.471 178.348 572.593 177.308 572.593 176.58C572.593 175.505 572.333 174.777 571.813 174.396C571.327 174.015 570.461 173.824 569.213 173.824H565.937C564.342 173.824 563.25 173.876 562.661 173.98C562.071 174.049 561.655 174.24 561.413 174.552C561.17 174.829 560.945 175.401 560.737 176.268L558.189 188.28C557.877 189.701 557.721 190.62 557.721 191.036C557.721 191.521 557.859 191.885 558.137 192.128C558.449 192.336 558.934 192.475 559.593 192.544C560.286 192.613 561.378 192.648 562.869 192.648H564.481L564.117 194.78H544.669L545.033 192.648C547.737 192.648 549.539 192.579 550.441 192.44C551.342 192.301 551.949 191.955 552.261 191.4C552.607 190.845 552.971 189.701 553.353 187.968L559.697 158.12C560.009 156.699 560.165 155.78 560.165 155.364C560.165 154.879 560.009 154.532 559.697 154.324C559.419 154.081 558.934 153.925 558.241 153.856C557.582 153.787 556.507 153.752 555.017 153.752H553.405L553.769 151.62H586.633L584.189 166.596H582.057C582.403 163.545 582.577 161.327 582.577 159.94C582.577 158.276 582.299 157.028 581.745 156.196C581.225 155.329 580.289 154.723 578.937 154.376C577.585 154.029 575.574 153.856 572.905 153.856H571.657C569.369 153.856 567.843 153.925 567.081 154.064C566.318 154.203 565.781 154.549 565.469 155.104C565.191 155.624 564.879 156.733 564.533 158.432L562.193 169.456C562.089 169.976 562.037 170.375 562.037 170.652C562.037 170.964 562.141 171.189 562.349 171.328C562.557 171.432 562.99 171.501 563.649 171.536C564.307 171.571 565.105 171.588 566.041 171.588H569.317C570.773 171.588 571.882 171.311 572.645 170.756C573.407 170.201 574.031 169.248 574.517 167.896C575.037 166.509 575.609 164.273 576.233 161.188H578.417L573.477 184.276H571.293ZM602.702 184.276C603.083 182.577 603.395 181.052 603.638 179.7C603.881 178.348 604.002 177.308 604.002 176.58C604.002 175.505 603.742 174.777 603.222 174.396C602.737 174.015 601.87 173.824 600.622 173.824H597.346C595.751 173.824 594.659 173.876 594.07 173.98C593.481 174.049 593.065 174.24 592.822 174.552C592.579 174.829 592.354 175.401 592.146 176.268L589.598 188.28C589.286 189.701 589.13 190.62 589.13 191.036C589.13 191.521 589.269 191.885 589.546 192.128C589.858 192.336 590.343 192.475 591.002 192.544C591.695 192.613 592.787 192.648 594.278 192.648H595.89L595.526 194.78H576.078L576.442 192.648C579.146 192.648 580.949 192.579 581.85 192.44C582.751 192.301 583.358 191.955 583.67 191.4C584.017 190.845 584.381 189.701 584.762 187.968L591.106 158.12C591.418 156.699 591.574 155.78 591.574 155.364C591.574 154.879 591.418 154.532 591.106 154.324C590.829 154.081 590.343 153.925 589.65 153.856C588.991 153.787 587.917 153.752 586.426 153.752H584.814L585.178 151.62H618.042L615.598 166.596H613.466C613.813 163.545 613.986 161.327 613.986 159.94C613.986 158.276 613.709 157.028 613.154 156.196C612.634 155.329 611.698 154.723 610.346 154.376C608.994 154.029 606.983 153.856 604.314 153.856H603.066C600.778 153.856 599.253 153.925 598.49 154.064C597.727 154.203 597.19 154.549 596.878 155.104C596.601 155.624 596.289 156.733 595.942 158.432L593.602 169.456C593.498 169.976 593.446 170.375 593.446 170.652C593.446 170.964 593.55 171.189 593.758 171.328C593.966 171.432 594.399 171.501 595.058 171.536C595.717 171.571 596.514 171.588 597.45 171.588H600.726C602.182 171.588 603.291 171.311 604.054 170.756C604.817 170.201 605.441 169.248 605.926 167.896C606.446 166.509 607.018 164.273 607.642 161.188H609.826L604.886 184.276H602.702ZM634.111 184.276C634.492 182.577 634.804 181.052 635.047 179.7C635.29 178.348 635.411 177.308 635.411 176.58C635.411 175.505 635.151 174.777 634.631 174.396C634.146 174.015 633.279 173.824 632.031 173.824H628.755C627.16 173.824 626.068 173.876 625.479 173.98C624.89 174.049 624.474 174.24 624.231 174.552C623.988 174.829 623.763 175.401 623.555 176.268L621.007 188.28C620.695 189.701 620.539 190.62 620.539 191.036C620.539 191.521 620.678 191.885 620.955 192.128C621.267 192.336 621.752 192.475 622.411 192.544C623.104 192.613 624.196 192.648 625.687 192.648H627.299L626.935 194.78H607.487L607.851 192.648C610.555 192.648 612.358 192.579 613.259 192.44C614.16 192.301 614.767 191.955 615.079 191.4C615.426 190.845 615.79 189.701 616.171 187.968L622.515 158.12C622.827 156.699 622.983 155.78 622.983 155.364C622.983 154.879 622.827 154.532 622.515 154.324C622.238 154.081 621.752 153.925 621.059 153.856C620.4 153.787 619.326 153.752 617.835 153.752H616.223L616.587 151.62H649.451L647.007 166.596H644.875C645.222 163.545 645.395 161.327 645.395 159.94C645.395 158.276 645.118 157.028 644.563 156.196C644.043 155.329 643.107 154.723 641.755 154.376C640.403 154.029 638.392 153.856 635.723 153.856H634.475C632.187 153.856 630.662 153.925 629.899 154.064C629.136 154.203 628.599 154.549 628.287 155.104C628.01 155.624 627.698 156.733 627.351 158.432L625.011 169.456C624.907 169.976 624.855 170.375 624.855 170.652C624.855 170.964 624.959 171.189 625.167 171.328C625.375 171.432 625.808 171.501 626.467 171.536C627.126 171.571 627.923 171.588 628.859 171.588H632.135C633.591 171.588 634.7 171.311 635.463 170.756C636.226 170.201 636.85 169.248 637.335 167.896C637.855 166.509 638.427 164.273 639.051 161.188H641.235L636.295 184.276H634.111ZM665.52 184.276C665.902 182.577 666.214 181.052 666.456 179.7C666.699 178.348 666.82 177.308 666.82 176.58C666.82 175.505 666.56 174.777 666.04 174.396C665.555 174.015 664.688 173.824 663.44 173.824H660.164C658.57 173.824 657.478 173.876 656.888 173.98C656.299 174.049 655.883 174.24 655.64 174.552C655.398 174.829 655.172 175.401 654.964 176.268L652.416 188.28C652.104 189.701 651.948 190.62 651.948 191.036C651.948 191.521 652.087 191.885 652.364 192.128C652.676 192.336 653.162 192.475 653.82 192.544C654.514 192.613 655.606 192.648 657.096 192.648H658.708L658.344 194.78H638.896L639.26 192.648C641.964 192.648 643.767 192.579 644.668 192.44C645.57 192.301 646.176 191.955 646.488 191.4C646.835 190.845 647.199 189.701 647.58 187.968L653.924 158.12C654.236 156.699 654.392 155.78 654.392 155.364C654.392 154.879 654.236 154.532 653.924 154.324C653.647 154.081 653.162 153.925 652.468 153.856C651.81 153.787 650.735 153.752 649.244 153.752H647.632L647.996 151.62H680.86L678.416 166.596H676.284C676.631 163.545 676.804 161.327 676.804 159.94C676.804 158.276 676.527 157.028 675.972 156.196C675.452 155.329 674.516 154.723 673.164 154.376C671.812 154.029 669.802 153.856 667.132 153.856H665.884C663.596 153.856 662.071 153.925 661.308 154.064C660.546 154.203 660.008 154.549 659.696 155.104C659.419 155.624 659.107 156.733 658.76 158.432L656.42 169.456C656.316 169.976 656.264 170.375 656.264 170.652C656.264 170.964 656.368 171.189 656.576 171.328C656.784 171.432 657.218 171.501 657.876 171.536C658.535 171.571 659.332 171.588 660.268 171.588H663.544C665 171.588 666.11 171.311 666.872 170.756C667.635 170.201 668.259 169.248 668.744 167.896C669.264 166.509 669.836 164.273 670.46 161.188H672.644L667.704 184.276H665.52ZM696.93 184.276C697.311 182.577 697.623 181.052 697.866 179.7C698.108 178.348 698.23 177.308 698.23 176.58C698.23 175.505 697.97 174.777 697.45 174.396C696.964 174.015 696.098 173.824 694.85 173.824H691.574C689.979 173.824 688.887 173.876 688.298 173.98C687.708 174.049 687.292 174.24 687.05 174.552C686.807 174.829 686.582 175.401 686.374 176.268L683.826 188.28C683.514 189.701 683.358 190.62 683.358 191.036C683.358 191.521 683.496 191.885 683.774 192.128C684.086 192.336 684.571 192.475 685.23 192.544C685.923 192.613 687.015 192.648 688.506 192.648H690.118L689.754 194.78H670.306L670.67 192.648C673.374 192.648 675.176 192.579 676.078 192.44C676.979 192.301 677.586 191.955 677.898 191.4C678.244 190.845 678.608 189.701 678.99 187.968L685.334 158.12C685.646 156.699 685.802 155.78 685.802 155.364C685.802 154.879 685.646 154.532 685.334 154.324C685.056 154.081 684.571 153.925 683.878 153.856C683.219 153.787 682.144 153.752 680.654 153.752H679.042L679.406 151.62H712.27L709.826 166.596H707.694C708.04 163.545 708.214 161.327 708.214 159.94C708.214 158.276 707.936 157.028 707.382 156.196C706.862 155.329 705.926 154.723 704.574 154.376C703.222 154.029 701.211 153.856 698.542 153.856H697.294C695.006 153.856 693.48 153.925 692.718 154.064C691.955 154.203 691.418 154.549 691.106 155.104C690.828 155.624 690.516 156.733 690.17 158.432L687.83 169.456C687.726 169.976 687.674 170.375 687.674 170.652C687.674 170.964 687.778 171.189 687.986 171.328C688.194 171.432 688.627 171.501 689.286 171.536C689.944 171.571 690.742 171.588 691.678 171.588H694.954C696.41 171.588 697.519 171.311 698.282 170.756C699.044 170.201 699.668 169.248 700.154 167.896C700.674 166.509 701.246 164.273 701.87 161.188H704.054L699.114 184.276H696.93ZM728.339 184.276C728.72 182.577 729.032 181.052 729.275 179.7C729.517 178.348 729.639 177.308 729.639 176.58C729.639 175.505 729.379 174.777 728.859 174.396C728.373 174.015 727.507 173.824 726.259 173.824H722.983C721.388 173.824 720.296 173.876 719.707 173.98C719.117 174.049 718.701 174.24 718.459 174.552C718.216 174.829 717.991 175.401 717.783 176.268L715.235 188.28C714.923 189.701 714.767 190.62 714.767 191.036C714.767 191.521 714.905 191.885 715.183 192.128C715.495 192.336 715.98 192.475 716.639 192.544C717.332 192.613 718.424 192.648 719.915 192.648H721.527L721.163 194.78H701.715L702.079 192.648C704.783 192.648 706.585 192.579 707.487 192.44C708.388 192.301 708.995 191.955 709.307 191.4C709.653 190.845 710.017 189.701 710.399 187.968L716.743 158.12C717.055 156.699 717.211 155.78 717.211 155.364C717.211 154.879 717.055 154.532 716.743 154.324C716.465 154.081 715.98 153.925 715.287 153.856C714.628 153.787 713.553 153.752 712.063 153.752H710.451L710.815 151.62H743.679L741.235 166.596H739.103C739.449 163.545 739.623 161.327 739.623 159.94C739.623 158.276 739.345 157.028 738.791 156.196C738.271 155.329 737.335 154.723 735.983 154.376C734.631 154.029 732.62 153.856 729.951 153.856H728.703C726.415 153.856 724.889 153.925 724.127 154.064C723.364 154.203 722.827 154.549 722.515 155.104C722.237 155.624 721.925 156.733 721.579 158.432L719.239 169.456C719.135 169.976 719.083 170.375 719.083 170.652C719.083 170.964 719.187 171.189 719.395 171.328C719.603 171.432 720.036 171.501 720.695 171.536C721.353 171.571 722.151 171.588 723.087 171.588H726.363C727.819 171.588 728.928 171.311 729.691 170.756C730.453 170.201 731.077 169.248 731.563 167.896C732.083 166.509 732.655 164.273 733.279 161.188H735.463L730.523 184.276H728.339Z" fill="black"/>
<path d="M382.94 197H373.58L366.32 167.84H366.2L359.06 197H349.52L338.18 154.16H347.6L354.38 183.32H354.5L361.94 154.16H370.76L378.08 183.68H378.2L385.22 154.16H394.46L382.94 197ZM396.7 154.16H405.22V170.3H405.4C406.48 168.5 407.86 167.2 409.54 166.4C411.22 165.56 412.86 165.14 414.46 165.14C416.74 165.14 418.6 165.46 420.04 166.1C421.52 166.7 422.68 167.56 423.52 168.68C424.36 169.76 424.94 171.1 425.26 172.7C425.62 174.26 425.8 176 425.8 177.92V197H417.28V179.48C417.28 176.92 416.88 175.02 416.08 173.78C415.28 172.5 413.86 171.86 411.82 171.86C409.5 171.86 407.82 172.56 406.78 173.96C405.74 175.32 405.22 177.58 405.22 180.74V197H396.7V154.16ZM439.827 161.18H431.307V154.16H439.827V161.18ZM431.307 165.98H439.827V197H431.307V165.98ZM456.135 165.98H462.375V171.68H456.135V187.04C456.135 188.48 456.375 189.44 456.855 189.92C457.335 190.4 458.295 190.64 459.735 190.64C460.215 190.64 460.675 190.62 461.115 190.58C461.555 190.54 461.975 190.48 462.375 190.4V197C461.655 197.12 460.855 197.2 459.975 197.24C459.095 197.28 458.235 197.3 457.395 197.3C456.075 197.3 454.815 197.2 453.615 197C452.455 196.84 451.415 196.5 450.495 195.98C449.615 195.46 448.915 194.72 448.395 193.76C447.875 192.8 447.615 191.54 447.615 189.98V171.68H442.455V165.98H447.615V156.68H456.135V165.98ZM486.109 178.16C485.709 176 484.989 174.36 483.949 173.24C482.949 172.12 481.409 171.56 479.329 171.56C477.969 171.56 476.829 171.8 475.909 172.28C475.029 172.72 474.309 173.28 473.749 173.96C473.229 174.64 472.849 175.36 472.609 176.12C472.409 176.88 472.289 177.56 472.249 178.16H486.109ZM472.249 183.56C472.369 186.32 473.069 188.32 474.349 189.56C475.629 190.8 477.469 191.42 479.869 191.42C481.589 191.42 483.069 191 484.309 190.16C485.549 189.28 486.309 188.36 486.589 187.4H494.089C492.889 191.12 491.049 193.78 488.569 195.38C486.089 196.98 483.089 197.78 479.569 197.78C477.129 197.78 474.929 197.4 472.969 196.64C471.009 195.84 469.349 194.72 467.989 193.28C466.629 191.84 465.569 190.12 464.809 188.12C464.089 186.12 463.729 183.92 463.729 181.52C463.729 179.2 464.109 177.04 464.869 175.04C465.629 173.04 466.709 171.32 468.109 169.88C469.509 168.4 471.169 167.24 473.089 166.4C475.049 165.56 477.209 165.14 479.569 165.14C482.209 165.14 484.509 165.66 486.469 166.7C488.429 167.7 490.029 169.06 491.269 170.78C492.549 172.5 493.469 174.46 494.029 176.66C494.589 178.86 494.789 181.16 494.629 183.56H472.249Z" fill="black"/>
</svg>
