<?xml version="1.0" encoding="UTF-8"?>
<svg id="Layer_1" data-name="Layer 1" xmlns="http://www.w3.org/2000/svg" viewBox="0 0 1024 1024">
  <defs>
    <style>
      .cls-1 {
        fill: #000;
        stroke-width: 0px;
      }
    </style>
  </defs>
  <path class="cls-1" d="M773.16,512c0,11.86-4.53,23.72-13.58,32.77l-224.37,224.38c-12.79,12.8-33.55,12.8-46.35,0-6.4-6.4-9.6-14.79-9.6-23.18s3.2-16.77,9.6-23.17l181.94-181.94-68.81,3.91h-318.37c-18.11,0-32.78-14.67-32.78-32.77s14.67-32.77,32.78-32.77h318.37l68.81,3.91-181.94-181.94c-6.4-6.4-9.6-14.78-9.6-23.17s3.2-16.78,9.6-23.18c12.8-12.8,33.56-12.8,46.35,0l224.37,224.38c9.05,9.05,13.58,20.91,13.58,32.77Z"/>
</svg>